<?xml version="1.0" encoding="utf-8"?>
<!-- Generator: Adobe Illustrator 16.0.0, SVG Export Plug-In . SVG Version: 6.00 Build 0)  -->
<!DOCTYPE svg PUBLIC "-//W3C//DTD SVG 1.1//EN" "http://www.w3.org/Graphics/SVG/1.1/DTD/svg11.dtd">
<svg version="1.1" xmlns="http://www.w3.org/2000/svg" xmlns:xlink="http://www.w3.org/1999/xlink" x="0px" y="0px" width="39px"
	 height="40px" viewBox="0 0 39 40" enable-background="new 0 0 39 40" xml:space="preserve">
<g id="Layer_1">
	<rect x="119.5" fill="#357AE8" width="40" height="40"/>
	<rect x="-60.5" fill="#357AE8" width="40" height="40"/>
	<path fill="#FFFFFF" d="M-35.082,20.623l0.544-4.209h-4.169v-2.688c0-1.218,0.34-2.049,2.087-2.049l2.228-0.001V7.912
		c-0.385-0.051-1.706-0.166-3.247-0.166c-3.214,0-5.412,1.962-5.412,5.564v3.104h-3.635v4.209h3.635v10.8h4.345v-10.8H-35.082z"/>
	<path fill="#764C24" d="M35.354,8.928c-1.19,0.562-2.47,0.939-3.812,1.109c1.371-0.872,2.425-2.251,2.919-3.899
		c-1.279,0.808-2.702,1.395-4.214,1.711c-1.21-1.371-2.938-2.226-4.847-2.226c-3.668,0-6.64,3.156-6.64,7.049
		c0,0.553,0.059,1.09,0.172,1.604c-5.518-0.292-10.408-3.098-13.683-7.364c-0.569,1.042-0.897,2.253-0.897,3.545
		c0,2.444,1.173,4.604,2.952,5.866C6.219,16.289,5.194,15.97,4.3,15.441v0.089c0,3.415,2.287,6.265,5.323,6.914
		c-0.556,0.158-1.144,0.248-1.749,0.248c-0.427,0-0.842-0.047-1.248-0.13c0.846,2.799,3.296,4.838,6.199,4.896
		c-2.268,1.888-5.131,3.019-8.244,3.019c-0.532,0-1.062-0.035-1.581-0.102c2.937,2,6.426,3.166,10.178,3.166
		c12.209,0,18.886-10.736,18.886-20.053c0-0.305-0.008-0.609-0.019-0.914C33.34,11.583,34.462,10.344,35.354,8.928z"/>
	<path fill="#FFFFFF" d="M150.5,8h-21c-1.104,0-2,0.896-2,2v19c0,1.104,0.896,2,2,2h21c1.104,0,2-0.896,2-2V10
		C152.5,8.896,151.604,8,150.5,8z M134.5,29h-4V16h4V29z M132.607,13.689c-1.328,0-2.401-1.076-2.401-2.4
		c0-1.322,1.073-2.397,2.401-2.397c1.324,0,2.399,1.075,2.399,2.397C135.007,12.613,133.932,13.689,132.607,13.689z M150.5,29h-4
		v-6.655c0-1.544-0.215-3.529-2.334-3.529c-2.154,0-2.666,1.68-2.666,3.416V29h-4V16h4v1h-0.201c0.552-1,2.064-1.987,4.078-1.987
		c4.188,0,5.123,2.918,5.123,6.503V29z"/>
	<g>
		<g>
			<path fill="#764C24" d="M85.536,33.763H73.484c-4.391,0-7.963-3.572-7.963-7.963V13.748c0-4.391,3.572-7.964,7.963-7.964h12.052
				c4.392,0,7.964,3.573,7.964,7.964V25.8C93.5,30.19,89.928,33.763,85.536,33.763z M73.484,8.183c-3.069,0-5.566,2.496-5.566,5.565
				V25.8c0,3.068,2.497,5.566,5.566,5.566h12.052c3.069,0,5.565-2.498,5.565-5.566V13.748c0-3.069-2.496-5.565-5.565-5.565H73.484z"
				/>
		</g>
		<g>
			<path fill="#764C24" d="M79.511,26.937c-3.95,0-7.164-3.212-7.164-7.163c0-3.95,3.214-7.165,7.164-7.165s7.163,3.214,7.163,7.165
				C86.674,23.725,83.461,26.937,79.511,26.937z M79.511,15.007c-2.629,0-4.767,2.139-4.767,4.767c0,2.627,2.138,4.765,4.767,4.765
				c2.627,0,4.765-2.138,4.765-4.765C84.275,17.146,82.138,15.007,79.511,15.007z"/>
		</g>
		<g>
			<circle fill="#764C24" cx="86.981" cy="12.2" r="1.721"/>
		</g>
	</g>
</g>
<g id="Layer_2">
	<g>
		<path fill="#357AE8" d="M219.25,19.875c0.25,15.375-19.625,35.75-19.625,35.75s-19-19.375-19.875-35.75
			c-0.582-10.893,8.843-19.75,19.75-19.75S219.072,8.969,219.25,19.875z"/>
		<ellipse fill="#FFFFFF" cx="199.569" cy="19.567" rx="0.958" ry="0.945"/>
		<ellipse fill="#FFFFFF" cx="199.569" cy="12.006" rx="0.958" ry="0.945"/>
		<ellipse fill="#FFFFFF" cx="199.569" cy="4.445" rx="0.958" ry="0.945"/>
		<path fill="#FFFFFF" d="M203.5,4.92c-0.103,0.512-0.607,0.844-1.127,0.742c-0.518-0.101-0.855-0.599-0.752-1.111
			c0.103-0.512,0.607-0.845,1.127-0.743C203.267,3.91,203.603,4.408,203.5,4.92z"/>
		<path fill="#FFFFFF" d="M206.322,5.957c-0.202,0.482-0.763,0.712-1.252,0.511c-0.489-0.199-0.722-0.752-0.519-1.234
			c0.202-0.483,0.762-0.711,1.252-0.512C206.293,4.922,206.525,5.475,206.322,5.957z"/>
		<path fill="#FFFFFF" d="M208.886,7.518c-0.295,0.435-0.892,0.551-1.33,0.261c-0.439-0.29-0.559-0.877-0.265-1.311
			c0.293-0.434,0.889-0.551,1.329-0.261C209.061,6.498,209.179,7.084,208.886,7.518z"/>
		<path fill="#FFFFFF" d="M211.089,9.542c-0.375,0.37-0.98,0.369-1.355,0c-0.374-0.369-0.374-0.967,0-1.336
			c0.375-0.369,0.98-0.369,1.356,0C211.463,8.575,211.463,9.173,211.089,9.542z"/>
		<path fill="#FFFFFF" d="M212.851,11.951c-0.44,0.29-1.034,0.173-1.329-0.261c-0.294-0.434-0.175-1.021,0.265-1.311
			c0.438-0.29,1.035-0.173,1.33,0.26C213.409,11.075,213.291,11.662,212.851,11.951z"/>
		<path fill="#FFFFFF" d="M214.102,14.653c-0.489,0.2-1.049-0.029-1.252-0.512c-0.202-0.481,0.03-1.035,0.519-1.234
			c0.49-0.2,1.05,0.029,1.252,0.511C214.822,13.901,214.591,14.453,214.102,14.653z"/>
		<path fill="#FFFFFF" d="M214.796,17.543c-0.521,0.103-1.024-0.23-1.128-0.743c-0.104-0.511,0.233-1.009,0.752-1.11
			c0.52-0.102,1.024,0.23,1.127,0.742C215.65,16.944,215.312,17.442,214.796,17.543z"/>
		<ellipse fill="#FFFFFF" cx="214.902" cy="19.567" rx="0.959" ry="0.945"/>
		<path fill="#FFFFFF" d="M214.42,23.444c-0.519-0.101-0.855-0.6-0.752-1.11c0.104-0.514,0.606-0.847,1.128-0.744
			c0.518,0.102,0.854,0.6,0.751,1.113C215.444,23.214,214.939,23.546,214.42,23.444z"/>
		<path fill="#FFFFFF" d="M213.368,26.228c-0.488-0.199-0.721-0.753-0.519-1.234c0.202-0.483,0.763-0.713,1.252-0.513
			s0.722,0.754,0.519,1.235C214.418,26.197,213.857,26.427,213.368,26.228z"/>
		<path fill="#FFFFFF" d="M211.786,28.755c-0.439-0.29-0.558-0.877-0.265-1.312c0.293-0.434,0.889-0.55,1.329-0.262
			c0.44,0.292,0.559,0.877,0.266,1.312C212.821,28.928,212.225,29.045,211.786,28.755z"/>
		<path fill="#FFFFFF" d="M209.733,30.929c-0.374-0.369-0.374-0.969,0-1.338c0.375-0.367,0.98-0.367,1.356,0
			c0.373,0.369,0.373,0.968,0,1.338C210.714,31.298,210.108,31.298,209.733,30.929z"/>
		<path fill="#FFFFFF" d="M207.291,32.666c-0.294-0.435-0.175-1.021,0.265-1.312c0.438-0.289,1.035-0.173,1.33,0.261
			c0.293,0.435,0.175,1.021-0.266,1.312S207.584,33.1,207.291,32.666z"/>
		<path fill="#FFFFFF" d="M204.552,33.9c-0.203-0.482,0.029-1.035,0.519-1.235c0.488-0.199,1.05,0.029,1.252,0.512
			c0.203,0.482-0.029,1.034-0.519,1.233C205.313,34.61,204.754,34.381,204.552,33.9z"/>
		<path fill="#FFFFFF" d="M201.621,34.582c-0.104-0.511,0.234-1.008,0.752-1.11c0.519-0.102,1.024,0.23,1.127,0.742
			c0.103,0.514-0.232,1.011-0.752,1.111C202.229,35.427,201.724,35.096,201.621,34.582z"/>
		<ellipse fill="#FFFFFF" cx="199.57" cy="34.69" rx="0.958" ry="0.946"/>
		<path fill="#FFFFFF" d="M195.639,34.215c0.103-0.513,0.607-0.845,1.127-0.743c0.518,0.103,0.855,0.6,0.752,1.112
			c-0.103,0.512-0.607,0.844-1.127,0.741C195.872,35.224,195.536,34.727,195.639,34.215z"/>
		<path fill="#FFFFFF" d="M192.816,33.177c0.202-0.482,0.763-0.711,1.253-0.512c0.488,0.199,0.721,0.752,0.519,1.235
			c-0.203,0.481-0.763,0.71-1.252,0.511C192.846,34.211,192.613,33.659,192.816,33.177z"/>
		<path fill="#FFFFFF" d="M190.255,31.616c0.293-0.435,0.888-0.551,1.33-0.261c0.438,0.289,0.557,0.876,0.263,1.311
			c-0.295,0.434-0.889,0.551-1.329,0.261C190.078,32.636,189.96,32.05,190.255,31.616z"/>
		<path fill="#FFFFFF" d="M188.05,29.592c0.375-0.368,0.98-0.368,1.355,0c0.374,0.368,0.375,0.967,0,1.337
			c-0.375,0.369-0.98,0.369-1.355,0C187.676,30.559,187.676,29.96,188.05,29.592z"/>
		<path fill="#FFFFFF" d="M186.288,27.182c0.44-0.288,1.034-0.172,1.33,0.263c0.293,0.433,0.175,1.021-0.266,1.311
			c-0.438,0.29-1.035,0.174-1.328-0.261C185.729,28.059,185.848,27.472,186.288,27.182z"/>
		<path fill="#FFFFFF" d="M185.037,24.48c0.489-0.2,1.049,0.03,1.252,0.514c0.202,0.48-0.03,1.033-0.519,1.233
			c-0.49,0.199-1.051-0.029-1.252-0.512C184.316,25.234,184.549,24.68,185.037,24.48z"/>
		<path fill="#FFFFFF" d="M184.344,21.59c0.519-0.102,1.023,0.23,1.127,0.744c0.104,0.511-0.233,1.009-0.752,1.111
			c-0.521,0.102-1.023-0.231-1.128-0.742C183.488,22.188,183.826,21.691,184.344,21.59z"/>
		<ellipse fill="#FFFFFF" cx="184.236" cy="19.567" rx="0.959" ry="0.946"/>
		<path fill="#FFFFFF" d="M184.718,15.69c0.52,0.102,0.856,0.6,0.753,1.111c-0.103,0.512-0.606,0.844-1.127,0.744
			c-0.519-0.103-0.855-0.601-0.753-1.113C183.695,15.92,184.199,15.588,184.718,15.69z"/>
		<path fill="#FFFFFF" d="M185.771,12.907c0.488,0.2,0.721,0.753,0.518,1.235c-0.201,0.481-0.762,0.711-1.251,0.512
			c-0.489-0.201-0.722-0.753-0.519-1.236C184.721,12.936,185.281,12.707,185.771,12.907z"/>
		<path fill="#FFFFFF" d="M187.353,10.38c0.439,0.29,0.558,0.876,0.265,1.312c-0.293,0.434-0.889,0.55-1.329,0.26
			c-0.44-0.29-0.559-0.877-0.266-1.311C186.318,10.207,186.914,10.09,187.353,10.38z"/>
		<path fill="#FFFFFF" d="M189.405,8.206c0.374,0.369,0.374,0.966,0,1.337c-0.374,0.368-0.979,0.368-1.356-0.001
			c-0.374-0.369-0.373-0.967,0-1.336C188.426,7.836,189.031,7.837,189.405,8.206z"/>
		<path fill="#FFFFFF" d="M191.848,6.468c0.294,0.434,0.175,1.021-0.266,1.312c-0.438,0.289-1.033,0.172-1.329-0.262
			c-0.294-0.434-0.175-1.021,0.266-1.311C190.959,5.917,191.555,6.035,191.848,6.468z"/>
		<path fill="#FFFFFF" d="M194.587,5.234c0.203,0.482-0.03,1.035-0.519,1.235c-0.488,0.199-1.05-0.03-1.252-0.512
			c-0.203-0.482,0.029-1.036,0.519-1.235C193.825,4.523,194.385,4.752,194.587,5.234z"/>
		<path fill="#FFFFFF" d="M197.518,4.551c0.104,0.512-0.234,1.009-0.754,1.111c-0.517,0.103-1.022-0.23-1.126-0.742
			c-0.103-0.513,0.234-1.01,0.753-1.112C196.91,3.707,197.415,4.04,197.518,4.551z"/>
		<path fill="#FFFFFF" d="M208.378,12.216c-0.374,0.369-0.979,0.369-1.355,0c-0.374-0.37-0.374-0.968,0-1.337
			c0.376-0.369,0.981-0.369,1.355,0C208.753,11.248,208.753,11.846,208.378,12.216z"/>
		<path fill="#FFFFFF" d="M210.56,16.1c-0.488,0.199-1.049-0.029-1.251-0.512c-0.202-0.481,0.029-1.035,0.519-1.233
			c0.489-0.201,1.049,0.029,1.252,0.509C211.281,15.348,211.05,15.901,210.56,16.1z"/>
		<ellipse fill="#FFFFFF" cx="211.068" cy="19.567" rx="0.958" ry="0.945"/>
		<path fill="#FFFFFF" d="M209.827,24.78c-0.489-0.199-0.721-0.752-0.519-1.234s0.763-0.711,1.251-0.512
			c0.49,0.199,0.722,0.753,0.52,1.234C210.876,24.75,210.316,24.979,209.827,24.78z"/>
		<path fill="#FFFFFF" d="M207.022,28.256c-0.374-0.369-0.374-0.969,0-1.338c0.376-0.369,0.981-0.368,1.355,0
			c0.375,0.369,0.375,0.969,0,1.338C208.004,28.625,207.398,28.625,207.022,28.256z"/>
		<path fill="#FFFFFF" d="M203.389,12.943c-0.202,0.483-0.764,0.711-1.252,0.512c-0.489-0.2-0.722-0.753-0.519-1.235
			c0.202-0.482,0.763-0.712,1.252-0.512C203.359,11.908,203.591,12.461,203.389,12.943z"/>
		<path fill="#FFFFFF" d="M205.668,14.889c-0.375,0.369-0.98,0.369-1.355,0c-0.374-0.369-0.374-0.967,0-1.336
			c0.375-0.369,0.98-0.369,1.355,0C206.042,13.921,206.042,14.52,205.668,14.889z"/>
		<path fill="#FFFFFF" d="M207.02,17.547c-0.489,0.199-1.05-0.029-1.253-0.512c-0.203-0.483,0.03-1.035,0.52-1.235
			c0.487-0.2,1.05,0.029,1.252,0.512C207.74,16.793,207.509,17.347,207.02,17.547z"/>
		<ellipse fill="#FFFFFF" cx="207.236" cy="19.567" rx="0.958" ry="0.945"/>
		<path fill="#FFFFFF" d="M206.286,23.334c-0.489-0.2-0.723-0.753-0.52-1.235c0.202-0.482,0.764-0.711,1.253-0.512
			c0.489,0.2,0.721,0.753,0.519,1.234C207.336,23.305,206.775,23.534,206.286,23.334z"/>
		<path fill="#FFFFFF" d="M204.312,25.583c-0.374-0.369-0.374-0.968,0-1.338c0.375-0.369,0.98-0.369,1.355,0
			c0.374,0.37,0.374,0.969,0,1.338C205.294,25.951,204.688,25.951,204.312,25.583z"/>
		<path fill="#FFFFFF" d="M201.618,26.915c-0.203-0.483,0.029-1.036,0.519-1.236c0.488-0.199,1.05,0.029,1.252,0.512
			c0.202,0.483-0.029,1.036-0.519,1.235C202.381,27.626,201.82,27.396,201.618,26.915z"/>
		<ellipse fill="#FFFFFF" cx="199.57" cy="27.128" rx="0.958" ry="0.945"/>
		<path fill="#FFFFFF" d="M195.75,26.191c0.202-0.483,0.763-0.712,1.252-0.513s0.723,0.753,0.52,1.236
			c-0.203,0.481-0.763,0.711-1.253,0.511C195.779,27.227,195.548,26.674,195.75,26.191z"/>
		<path fill="#FFFFFF" d="M193.471,24.245c0.375-0.369,0.981-0.368,1.356,0c0.373,0.369,0.373,0.969,0,1.338
			c-0.375,0.368-0.981,0.368-1.356,0C193.097,25.214,193.097,24.615,193.471,24.245z"/>
		<path fill="#FFFFFF" d="M192.119,21.588c0.489-0.2,1.05,0.028,1.253,0.511s-0.03,1.035-0.52,1.236
			c-0.489,0.199-1.05-0.029-1.252-0.514C191.398,22.341,191.63,21.788,192.119,21.588z"/>
		<ellipse fill="#FFFFFF" cx="191.902" cy="19.567" rx="0.959" ry="0.946"/>
		<path fill="#FFFFFF" d="M192.853,15.8c0.489,0.2,0.723,0.752,0.52,1.236c-0.202,0.481-0.763,0.71-1.253,0.511
			c-0.489-0.2-0.721-0.753-0.519-1.235C191.803,15.83,192.363,15.6,192.853,15.8z"/>
		<path fill="#FFFFFF" d="M194.826,13.552c0.374,0.369,0.374,0.968,0.001,1.336c-0.375,0.369-0.981,0.369-1.356,0
			c-0.374-0.369-0.374-0.967,0-1.336S194.451,13.183,194.826,13.552z"/>
		<path fill="#FFFFFF" d="M197.521,12.22c0.204,0.482-0.029,1.035-0.519,1.235c-0.488,0.199-1.05-0.029-1.252-0.512
			s0.029-1.036,0.519-1.235S197.318,11.737,197.521,12.22z"/>
		<path fill="#FFFFFF" d="M202.958,17.562c-0.375,0.369-0.981,0.369-1.355,0s-0.374-0.967,0-1.336s0.98-0.369,1.355,0
			C203.331,16.595,203.331,17.193,202.958,17.562z"/>
		<ellipse fill="#FFFFFF" cx="203.402" cy="19.567" rx="0.957" ry="0.945"/>
		<path fill="#FFFFFF" d="M201.603,22.908c-0.374-0.368-0.374-0.968-0.001-1.337c0.375-0.368,0.981-0.368,1.356,0
			c0.373,0.37,0.373,0.969,0,1.337C202.583,23.277,201.977,23.277,201.603,22.908z"/>
	</g>
	<g>
	</g>
	<g>
	</g>
	<g>
	</g>
	<g>
	</g>
	<g>
	</g>
	<g>
	</g>
	<g>
	</g>
	<g>
	</g>
	<g>
	</g>
	<g>
	</g>
	<g>
	</g>
	<g>
	</g>
	<g>
	</g>
	<g>
	</g>
	<g>
	</g>
</g>
</svg>
