<?xml version="1.0" encoding="utf-8"?>
<!-- Generator: Adobe Illustrator 16.0.0, SVG Export Plug-In . SVG Version: 6.00 Build 0)  -->
<!DOCTYPE svg PUBLIC "-//W3C//DTD SVG 1.1//EN" "http://www.w3.org/Graphics/SVG/1.1/DTD/svg11.dtd">
<svg version="1.1" id="Layer_1" xmlns="http://www.w3.org/2000/svg" xmlns:xlink="http://www.w3.org/1999/xlink" x="0px" y="0px"
	 width="40px" height="56px" viewBox="0 0 40 56" enable-background="new 0 0 40 56" xml:space="preserve">
<path fill="#808080" d="M19.937,0.312C8.94,0.312-0.562,9.17,0.025,20.062c0.882,16.375,20.037,35.75,20.037,35.75
	S40.1,35.438,39.847,20.062C39.669,9.156,30.933,0.312,19.937,0.312z M31.928,22.719c0.447-1.455-7.347-2.137-8.483-2.221
	c-1.137-0.086-6.137,0.396-7.197,0.513c-7.802,0.854-8.787-3.075-8.787-3.075s1.517,0.598,2.955,0.77
	c1.439,0.171,4.963-0.083,6.061-0.427c1.362-0.426,7.878-1.709,11.665-1.282C31.928,17.425,32.61,20.498,31.928,22.719z"/>
<g>
</g>
<g>
</g>
<g>
</g>
<g>
</g>
<g>
</g>
<g>
</g>
<g>
</g>
<g>
</g>
<g>
</g>
<g>
</g>
<g>
</g>
<g>
</g>
<g>
</g>
<g>
</g>
<g>
</g>
</svg>
