<?xml version="1.0" encoding="utf-8"?>
<!-- Generator: Adobe Illustrator 16.0.0, SVG Export Plug-In . SVG Version: 6.00 Build 0)  -->
<!DOCTYPE svg PUBLIC "-//W3C//DTD SVG 1.1//EN" "http://www.w3.org/Graphics/SVG/1.1/DTD/svg11.dtd">
<svg version="1.1" id="Layer_1" xmlns="http://www.w3.org/2000/svg" xmlns:xlink="http://www.w3.org/1999/xlink" x="0px" y="0px"
	 width="100px" height="65px" viewBox="0.25 134 100 65" enable-background="new 0.25 134 100 65" xml:space="preserve">
<rect y="134" fill="#E3E8E4" width="100.5" height="65"/>
<g>
	<path fill="#999999" d="M13.896,159.83v-8.675h-3.121v-2.001h8.516v2.001h-3.105v8.675H13.896z"/>
	<path fill="#999999" d="M27.099,159.83l-0.673-1.809h-4.577l-0.673,1.809h-2.577l4.114-10.676h2.849l4.114,10.676H27.099z
		 M24.138,151.428l-1.665,4.594h3.329L24.138,151.428z"/>
	<path fill="#999999" d="M43.344,159.83v-10.676h4.994c2.32,0,3.585,1.568,3.585,3.441c0,1.856-1.28,3.424-3.585,3.424h-2.722v3.811
		H43.344z M49.603,152.596c0-0.896-0.688-1.44-1.585-1.44h-2.401v2.864h2.401C48.914,154.02,49.603,153.477,49.603,152.596z"/>
	<path fill="#999999" d="M52.831,154.5c0-3.217,2.354-5.521,5.587-5.521c3.217,0,5.57,2.305,5.57,5.521s-2.354,5.521-5.57,5.521
		C55.186,160.021,52.831,157.717,52.831,154.5z M61.65,154.5c0-2.001-1.264-3.505-3.232-3.505c-1.984,0-3.25,1.504-3.25,3.505
		c0,1.984,1.266,3.505,3.25,3.505C60.387,158.005,61.65,156.484,61.65,154.5z"/>
	<path fill="#999999" d="M65.07,154.5c0-3.377,2.562-5.521,5.697-5.521c2.209,0,3.603,1.121,4.402,2.385l-1.873,1.023
		c-0.496-0.752-1.408-1.393-2.529-1.393c-1.951,0-3.36,1.488-3.36,3.505s1.409,3.505,3.36,3.505c0.944,0,1.825-0.416,2.258-0.816
		v-1.279h-2.816v-1.985h5.09v4.099c-1.089,1.216-2.609,2-4.529,2C67.632,160.021,65.07,157.861,65.07,154.5z"/>
</g>
<g id="Layer_2">
</g>
<g>
	<path fill="#999999" d="M14.208,174.83l-4.114-10.676h2.577l2.962,8.195l2.961-8.195h2.577l-4.114,10.676H14.208z"/>
	<path fill="#999999" d="M22.158,174.83v-10.676h7.555v2.001h-5.281v2.241h5.17v2h-5.17v2.434h5.281v2H22.158z"/>
	<path fill="#999999" d="M38.85,174.83l-5.091-6.963v6.963h-2.272v-10.676h2.338l4.945,6.707v-6.707h2.272v10.676H38.85z"/>
	<path fill="#999999" d="M45.615,174.83v-8.675h-3.121v-2.001h8.516v2.001h-3.105v8.675H45.615z"/>
	<path fill="#999999" d="M52.462,170.557v-6.402h2.306v6.338c0,1.488,0.863,2.513,2.512,2.513c1.65,0,2.498-1.024,2.498-2.513
		v-6.338h2.32v6.402c0,2.641-1.568,4.465-4.818,4.465S52.462,173.197,52.462,170.557z"/>
	<path fill="#999999" d="M70.24,174.83l-2.098-3.793h-1.664v3.793h-2.272v-10.676H69.2c2.225,0,3.603,1.457,3.603,3.441
		c0,1.873-1.201,2.896-2.354,3.168l2.417,4.066H70.24z M70.465,167.579c0-0.88-0.688-1.424-1.585-1.424h-2.401v2.881h2.401
		C69.775,169.036,70.465,168.492,70.465,167.579z"/>
	<path fill="#999999" d="M74.494,174.83v-10.676h7.555v2.001h-5.281v2.241h5.17v2h-5.17v2.434h5.281v2H74.494z"/>
	<path fill="#999999" d="M83.086,173.326l1.248-1.777c0.753,0.784,1.921,1.457,3.395,1.457c1.265,0,1.855-0.56,1.855-1.185
		c0-1.857-6.146-0.56-6.146-4.578c0-1.777,1.537-3.25,4.051-3.25c1.697,0,3.104,0.512,4.162,1.489l-1.266,1.697
		c-0.863-0.801-2.017-1.168-3.105-1.168c-0.959,0-1.504,0.416-1.504,1.055c0,1.682,6.131,0.545,6.131,4.531
		c0,1.953-1.408,3.424-4.273,3.424C85.566,175.021,84.094,174.334,83.086,173.326z"/>
	<path fill="#999999" d="M38.85,159.83l-5.091-6.963v6.963h-2.272v-10.676h2.338l4.945,6.707v-6.707h2.272v10.676H38.85z"/>
</g>
<g>
	<g>
		<path fill="#AABAAE" d="M9.862,184.083c0,0,1.701,4.782,15.185,3.742c1.83-0.142,10.473-0.728,12.437-0.624
			c1.964,0.104,15.435,0.933,14.663,2.703c1.178-2.703,0-6.444-6.545-6.965c-6.546-0.52-17.805,1.041-20.161,1.56
			c-1.896,0.418-7.985,0.728-10.473,0.521C12.48,184.811,9.862,184.083,9.862,184.083z"/>
	</g>
</g>
</svg>
